<svg width="20" height="20" viewBox="0 0 20 20" fill="none" xmlns="http://www.w3.org/2000/svg">
<path fill-rule="evenodd" clip-rule="evenodd" d="M0 6.25C0 5.58696 0.263392 4.95107 0.732233 4.48223C1.20107 4.01339 1.83696 3.75 2.5 3.75H11.875C12.4814 3.74993 13.0671 3.97024 13.5231 4.36991C13.9791 4.76958 14.2743 5.32136 14.3537 5.9225L18.2413 4.195C18.4315 4.11021 18.64 4.07433 18.8477 4.09061C19.0554 4.10688 19.2557 4.17481 19.4304 4.2882C19.6052 4.4016 19.7488 4.55687 19.8483 4.7399C19.9478 4.92294 19.9999 5.12793 20 5.33625V14.6637C19.9998 14.8719 19.9477 15.0767 19.8483 15.2596C19.7488 15.4425 19.6053 15.5977 19.4308 15.711C19.2562 15.8244 19.0561 15.8924 18.8486 15.9088C18.641 15.9252 18.4327 15.8895 18.2425 15.805L14.3537 14.0775C14.2743 14.6786 13.9791 15.2304 13.5231 15.6301C13.0671 16.0298 12.4814 16.2501 11.875 16.25H2.5C1.83696 16.25 1.20107 15.9866 0.732233 15.5178C0.263392 15.0489 0 14.413 0 13.75V6.25ZM14.375 12.7188L18.75 14.6637V5.33625L14.375 7.28125V12.7188ZM2.5 5C2.16848 5 1.85054 5.1317 1.61612 5.36612C1.3817 5.60054 1.25 5.91848 1.25 6.25V13.75C1.25 14.0815 1.3817 14.3995 1.61612 14.6339C1.85054 14.8683 2.16848 15 2.5 15H11.875C12.2065 15 12.5245 14.8683 12.7589 14.6339C12.9933 14.3995 13.125 14.0815 13.125 13.75V6.25C13.125 5.91848 12.9933 5.60054 12.7589 5.36612C12.5245 5.1317 12.2065 5 11.875 5H2.5Z" fill="#FF007A"/>
</svg>
