<svg width="20" height="20" viewBox="0 0 20 20" fill="none" xmlns="http://www.w3.org/2000/svg">
<g clip-path="url(#clip0_117_3)">
<path d="M18.75 15C18.75 15.3315 18.6183 15.6495 18.3839 15.8839C18.1495 16.1183 17.8315 16.25 17.5 16.25H2.5C2.16848 16.25 1.85054 16.1183 1.61612 15.8839C1.3817 15.6495 1.25 15.3315 1.25 15V7.5C1.25 7.16848 1.3817 6.85054 1.61612 6.61612C1.85054 6.3817 2.16848 6.25 2.5 6.25H3.965C4.95905 6.24946 5.91221 5.85425 6.615 5.15125L7.6525 4.11625C7.88625 3.88242 8.20312 3.75073 8.53375 3.75H11.4637C11.7952 3.75007 12.1131 3.88181 12.3475 4.11625L13.3825 5.15125C13.7308 5.49964 14.1443 5.776 14.5994 5.96453C15.0546 6.15305 15.5424 6.25006 16.035 6.25H17.5C17.8315 6.25 18.1495 6.3817 18.3839 6.61612C18.6183 6.85054 18.75 7.16848 18.75 7.5V15ZM2.5 5C1.83696 5 1.20107 5.26339 0.732233 5.73223C0.263392 6.20107 0 6.83696 0 7.5L0 15C0 15.663 0.263392 16.2989 0.732233 16.7678C1.20107 17.2366 1.83696 17.5 2.5 17.5H17.5C18.163 17.5 18.7989 17.2366 19.2678 16.7678C19.7366 16.2989 20 15.663 20 15V7.5C20 6.83696 19.7366 6.20107 19.2678 5.73223C18.7989 5.26339 18.163 5 17.5 5H16.035C15.372 4.99986 14.7362 4.73637 14.2675 4.2675L13.2325 3.2325C12.7638 2.76363 12.128 2.50014 11.465 2.5H8.535C7.87201 2.50014 7.23623 2.76363 6.7675 3.2325L5.7325 4.2675C5.26377 4.73637 4.62799 4.99986 3.965 5H2.5Z" fill="#2C3E50"/>
<path d="M10 13.75C9.1712 13.75 8.37634 13.4208 7.79029 12.8347C7.20424 12.2487 6.875 11.4538 6.875 10.625C6.875 9.7962 7.20424 9.00134 7.79029 8.41529C8.37634 7.82924 9.1712 7.5 10 7.5C10.8288 7.5 11.6237 7.82924 12.2097 8.41529C12.7958 9.00134 13.125 9.7962 13.125 10.625C13.125 11.4538 12.7958 12.2487 12.2097 12.8347C11.6237 13.4208 10.8288 13.75 10 13.75ZM10 15C11.1603 15 12.2731 14.5391 13.0936 13.7186C13.9141 12.8981 14.375 11.7853 14.375 10.625C14.375 9.46468 13.9141 8.35188 13.0936 7.53141C12.2731 6.71094 11.1603 6.25 10 6.25C8.83968 6.25 7.72688 6.71094 6.90641 7.53141C6.08594 8.35188 5.625 9.46468 5.625 10.625C5.625 11.7853 6.08594 12.8981 6.90641 13.7186C7.72688 14.5391 8.83968 15 10 15V15ZM3.75 8.125C3.75 8.29076 3.68415 8.44973 3.56694 8.56694C3.44973 8.68415 3.29076 8.75 3.125 8.75C2.95924 8.75 2.80027 8.68415 2.68306 8.56694C2.56585 8.44973 2.5 8.29076 2.5 8.125C2.5 7.95924 2.56585 7.80027 2.68306 7.68306C2.80027 7.56585 2.95924 7.5 3.125 7.5C3.29076 7.5 3.44973 7.56585 3.56694 7.68306C3.68415 7.80027 3.75 7.95924 3.75 8.125V8.125Z" fill="#2C3E50"/>
</g>
<defs>
<clipPath id="clip0_117_3">
<rect width="20" height="20" fill="white"/>
</clipPath>
</defs>
</svg>
