<svg width="40" height="40" viewBox="0 0 40 40" fill="none" xmlns="http://www.w3.org/2000/svg">
<path d="M1.35005 9.675L1.25005 7.5C1.25005 6.17392 1.77683 4.90215 2.71451 3.96447C3.6522 3.02678 4.92397 2.5 6.25005 2.5H15.43C16.756 2.50028 18.0276 3.02725 18.965 3.965L21.035 6.035C21.9725 6.97275 23.2441 7.49972 24.57 7.5H34.525C35.2198 7.49993 35.907 7.64466 36.5428 7.92498C37.1785 8.20529 37.7489 8.61503 38.2174 9.12805C38.686 9.64108 39.0425 10.2461 39.2642 10.9046C39.4859 11.5631 39.5679 12.2606 39.505 12.9525L37.9125 30.4525C37.7997 31.6948 37.2265 32.85 36.3056 33.6914C35.3846 34.5328 34.1825 34.9995 32.935 35H7.06505C5.81764 34.9995 4.61547 34.5328 3.69454 33.6914C2.77361 32.85 2.20044 31.6948 2.08755 30.4525L0.495048 12.9525C0.388514 11.7945 0.691033 10.6357 1.35005 9.6775V9.675ZM5.47505 10C5.12776 9.99998 4.78428 10.0723 4.4665 10.2124C4.14872 10.3525 3.86361 10.5572 3.62935 10.8136C3.39508 11.07 3.2168 11.3723 3.10587 11.7014C2.99494 12.0305 2.95379 12.3791 2.98505 12.725L4.57755 30.225C4.63368 30.8462 4.91996 31.4239 5.38019 31.8448C5.84042 32.2657 6.44136 32.4994 7.06505 32.5H32.935C33.5587 32.4994 34.1597 32.2657 34.6199 31.8448C35.0801 31.4239 35.3664 30.8462 35.4225 30.225L37.015 12.725C37.0463 12.3791 37.0052 12.0305 36.8942 11.7014C36.7833 11.3723 36.605 11.07 36.3707 10.8136C36.1365 10.5572 35.8514 10.3525 35.5336 10.2124C35.2158 10.0723 34.8723 9.99998 34.525 10H5.47505ZM17.2 5.7325C16.9677 5.50004 16.6917 5.31569 16.388 5.19C16.0843 5.06431 15.7587 4.99974 15.43 5H6.25005C5.59515 4.99988 4.96636 5.25674 4.49887 5.71536C4.03137 6.17398 3.76249 6.79773 3.75005 7.4525L3.76505 7.8C4.30005 7.605 4.87505 7.5 5.47505 7.5H18.965L17.1975 5.7325H17.2Z" fill="#D6DCE4"/>
</svg>
