<svg width="20" height="20" viewBox="0 0 20 20" fill="none" xmlns="http://www.w3.org/2000/svg">
<g clip-path="url(#clip0_123_33)">
<path d="M10.0024 6.875C10.0024 7.37228 9.8049 7.84919 9.45327 8.20083C9.10164 8.55246 8.62472 8.75 8.12744 8.75C7.63016 8.75 7.15325 8.55246 6.80162 8.20083C6.44999 7.84919 6.25244 7.37228 6.25244 6.875C6.25244 6.37772 6.44999 5.90081 6.80162 5.54917C7.15325 5.19754 7.63016 5 8.12744 5C8.62472 5 9.10164 5.19754 9.45327 5.54917C9.8049 5.90081 10.0024 6.37772 10.0024 6.875V6.875Z" fill="#FFCB45"/>
<path d="M15 0H5C4.33696 0 3.70107 0.263392 3.23223 0.732233C2.76339 1.20107 2.5 1.83696 2.5 2.5V17.5C2.5 18.163 2.76339 18.7989 3.23223 19.2678C3.70107 19.7366 4.33696 20 5 20H15C15.663 20 16.2989 19.7366 16.7678 19.2678C17.2366 18.7989 17.5 18.163 17.5 17.5V2.5C17.5 1.83696 17.2366 1.20107 16.7678 0.732233C16.2989 0.263392 15.663 0 15 0V0ZM3.75 2.5C3.75 2.16848 3.8817 1.85054 4.11612 1.61612C4.35054 1.3817 4.66848 1.25 5 1.25H15C15.3315 1.25 15.6495 1.3817 15.8839 1.61612C16.1183 1.85054 16.25 2.16848 16.25 2.5V12.5L13.6462 9.89625C13.5821 9.83216 13.5047 9.78281 13.4195 9.75163C13.3344 9.72045 13.2434 9.70818 13.153 9.71567C13.0626 9.72316 12.9749 9.75024 12.8961 9.79502C12.8172 9.8398 12.749 9.90122 12.6962 9.975L10 13.75L7.29375 12.125C7.1741 12.0534 7.03392 12.0238 6.89552 12.041C6.75712 12.0582 6.62845 12.1212 6.53 12.22L3.75 15V2.5Z" fill="#FFCB45"/>
</g>
<defs>
<clipPath id="clip0_123_33">
<rect width="20" height="20" fill="white"/>
</clipPath>
</defs>
</svg>
