<svg width="20" height="20" viewBox="0 0 20 20" fill="none" xmlns="http://www.w3.org/2000/svg">
<path d="M16.6667 1.66699H8.33341C7.41425 1.66699 6.66675 2.41449 6.66675 3.33366V6.66699H3.33341C2.41425 6.66699 1.66675 7.41449 1.66675 8.33366V16.667C1.66675 17.5862 2.41425 18.3337 3.33341 18.3337H11.6667C12.5859 18.3337 13.3334 17.5862 13.3334 16.667V13.3337H16.6667C17.5859 13.3337 18.3334 12.5862 18.3334 11.667V3.33366C18.3334 2.41449 17.5859 1.66699 16.6667 1.66699ZM3.33341 16.667V8.33366H11.6667L11.6684 16.667H3.33341ZM16.6667 11.667H13.3334V8.33366C13.3334 7.41449 12.5859 6.66699 11.6667 6.66699H8.33341V3.33366H16.6667V11.667Z" fill="#D6DCE4"/>
</svg>
