<svg width="28" height="28" viewBox="0 0 28 28" fill="none" xmlns="http://www.w3.org/2000/svg">
<path d="M3.5 23.3338L5.01667 18.7838C3.70585 16.8452 3.23166 14.5493 3.68225 12.3232C4.13285 10.0971 5.47757 8.09212 7.4664 6.68115C9.45522 5.27019 11.9528 4.54921 14.4948 4.65228C17.0367 4.75535 19.4501 5.67544 21.2862 7.24149C23.1222 8.80753 24.256 10.913 24.4767 13.1663C24.6975 15.4197 23.9901 17.6676 22.4862 19.4921C20.9823 21.3167 18.7841 22.5937 16.3004 23.0857C13.8168 23.5778 11.2166 23.2514 8.98333 22.1672L3.5 23.3338" stroke="#2C3E50" stroke-width="1.75" stroke-linecap="round" stroke-linejoin="round"/>
<path d="M14 14V14.0117" stroke="#2C3E50" stroke-width="1.75" stroke-linecap="round" stroke-linejoin="round"/>
<path d="M9.3335 14V14.0117" stroke="#2C3E50" stroke-width="1.75" stroke-linecap="round" stroke-linejoin="round"/>
<path d="M18.6665 14V14.0117" stroke="#2C3E50" stroke-width="1.75" stroke-linecap="round" stroke-linejoin="round"/>
</svg>
