<svg width="20" height="20" viewBox="0 0 20 20" fill="none" xmlns="http://www.w3.org/2000/svg">
<path d="M10 2C12.1217 2 14.1566 2.84285 15.6569 4.34315C17.1571 5.84344 18 7.87827 18 10C18 12.1217 17.1571 14.1566 15.6569 15.6569C14.1566 17.1571 12.1217 18 10 18C7.87827 18 5.84344 17.1571 4.34315 15.6569C2.84285 14.1566 2 12.1217 2 10C2 7.87827 2.84285 5.84344 4.34315 4.34315C5.84344 2.84285 7.87827 2 10 2V2ZM10 3C9.08075 3 8.1705 3.18106 7.32122 3.53284C6.47194 3.88463 5.70026 4.40024 5.05025 5.05025C4.40024 5.70026 3.88463 6.47194 3.53284 7.32122C3.18106 8.1705 3 9.08075 3 10C3 10.9193 3.18106 11.8295 3.53284 12.6788C3.88463 13.5281 4.40024 14.2997 5.05025 14.9497C5.70026 15.5998 6.47194 16.1154 7.32122 16.4672C8.1705 16.8189 9.08075 17 10 17C11.8565 17 13.637 16.2625 14.9497 14.9497C16.2625 13.637 17 11.8565 17 10C17 8.14348 16.2625 6.36301 14.9497 5.05025C13.637 3.7375 11.8565 3 10 3ZM7.155 12.427C7.87781 13.1547 8.85195 13.5779 9.87715 13.6095C10.9024 13.6411 11.9007 13.2788 12.667 12.597L12.845 12.427C12.9329 12.3377 13.051 12.2847 13.1761 12.2783C13.3012 12.272 13.4241 12.3129 13.5205 12.3928C13.617 12.4728 13.6799 12.586 13.6968 12.7101C13.7137 12.8342 13.6835 12.9601 13.612 13.063L13.555 13.133L13.532 13.155C13.0652 13.6189 12.5115 13.9862 11.9027 14.2361C11.2939 14.486 10.6418 14.6135 9.98374 14.6114C9.32564 14.6093 8.6744 14.4775 8.06722 14.2237C7.46004 13.9698 6.90881 13.5989 6.445 13.132C6.35151 13.0378 6.29925 12.9104 6.29972 12.7777C6.30019 12.645 6.35335 12.518 6.4475 12.4245C6.54165 12.331 6.66909 12.2788 6.80177 12.2792C6.93445 12.2797 7.06151 12.3328 7.155 12.427V12.427ZM12.5 7.5C12.7652 7.5 13.0196 7.60536 13.2071 7.79289C13.3946 7.98043 13.5 8.23478 13.5 8.5C13.5 8.76522 13.3946 9.01957 13.2071 9.20711C13.0196 9.39464 12.7652 9.5 12.5 9.5C12.2348 9.5 11.9804 9.39464 11.7929 9.20711C11.6054 9.01957 11.5 8.76522 11.5 8.5C11.5 8.23478 11.6054 7.98043 11.7929 7.79289C11.9804 7.60536 12.2348 7.5 12.5 7.5V7.5ZM7.5 7.5C7.76522 7.5 8.01957 7.60536 8.20711 7.79289C8.39464 7.98043 8.5 8.23478 8.5 8.5C8.5 8.76522 8.39464 9.01957 8.20711 9.20711C8.01957 9.39464 7.76522 9.5 7.5 9.5C7.23478 9.5 6.98043 9.39464 6.79289 9.20711C6.60536 9.01957 6.5 8.76522 6.5 8.5C6.5 8.23478 6.60536 7.98043 6.79289 7.79289C6.98043 7.60536 7.23478 7.5 7.5 7.5V7.5Z" fill="#D6DCE4"/>
</svg>
