<svg width="20" height="20" viewBox="0 0 20 20" fill="none" xmlns="http://www.w3.org/2000/svg">
<path d="M4.6424 6.57282C4.40365 5.00032 5.5124 3.58782 7.20615 3.07032C7.50672 2.97842 7.83102 3.00458 8.11297 3.14347C8.39492 3.28235 8.61331 3.52351 8.72365 3.81782L9.2674 5.26782C9.35493 5.50108 9.37076 5.75519 9.31285 5.99751C9.25494 6.23984 9.12594 6.45933 8.9424 6.62782L7.3249 8.10907C7.24517 8.18223 7.18576 8.27481 7.15246 8.37777C7.11916 8.48074 7.11311 8.59057 7.1349 8.69657L7.1499 8.76157L7.18865 8.92407C7.3898 9.71362 7.69631 10.4725 8.0999 11.1803C8.53954 11.9324 9.08513 12.6174 9.7199 13.2141L9.7699 13.2591C9.85065 13.3307 9.94859 13.3803 10.0542 13.4028C10.1598 13.4254 10.2694 13.4202 10.3724 13.3878L12.4636 12.7291C12.7013 12.6544 12.9559 12.6525 13.1946 12.7236C13.4334 12.7946 13.6454 12.9354 13.8036 13.1278L14.7936 14.3291C15.2061 14.8291 15.1561 15.5641 14.6824 16.0053C13.3861 17.2141 11.6036 17.4616 10.3636 16.4653C8.84368 15.2393 7.56234 13.7439 6.58365 12.0541C5.59701 10.3655 4.93797 8.50585 4.64115 6.57282H4.6424ZM8.44615 8.77907L9.78615 7.54907C10.1534 7.21224 10.4117 6.77332 10.5277 6.28866C10.6438 5.804 10.6123 5.29572 10.4374 4.82907L9.8949 3.37907C9.67283 2.78688 9.23331 2.30164 8.66592 2.02224C8.09852 1.74284 7.44594 1.6903 6.84115 1.87532C4.7374 2.51907 3.04865 4.40532 3.40615 6.76157C3.65615 8.40657 4.2324 10.4991 5.50365 12.6841C6.55954 14.5062 7.94172 16.1185 9.58115 17.4403C11.4411 18.9341 13.9236 18.4241 15.5361 16.9216C15.9975 16.492 16.2776 15.9025 16.3192 15.2734C16.3608 14.6444 16.1607 14.0232 15.7599 13.5366L14.7699 12.3341C14.4532 11.9497 14.0289 11.6686 13.5514 11.527C13.0739 11.3853 12.565 11.3895 12.0899 11.5391L10.3536 12.0853C9.90536 11.6231 9.51269 11.11 9.18365 10.5566C8.8658 9.99702 8.6181 9.40044 8.44615 8.78032V8.77907Z" fill="#3C444B"/>
</svg>
