<svg width="40" height="40" viewBox="0 0 40 40" fill="none" xmlns="http://www.w3.org/2000/svg">
<path d="M22.5733 17.4261C21.2082 16.0615 19.3569 15.2949 17.4267 15.2949C15.4964 15.2949 13.6452 16.0615 12.28 17.4261L7.13168 22.5728C5.76647 23.938 4.99951 25.7896 4.99951 27.7203C4.99951 29.651 5.76647 31.5026 7.13168 32.8678C8.49688 34.233 10.3485 34.9999 12.2792 34.9999C14.2099 34.9999 16.0615 34.233 17.4267 32.8678L20 30.2944" stroke="#D6DCE4" stroke-width="3.33333" stroke-linecap="round" stroke-linejoin="round"/>
<path d="M17.4268 22.5729C18.7919 23.9375 20.6432 24.704 22.5734 24.704C24.5037 24.704 26.3549 23.9375 27.7201 22.5729L32.8684 17.4262C34.2336 16.061 35.0006 14.2094 35.0006 12.2787C35.0006 10.348 34.2336 8.49639 32.8684 7.13119C31.5032 5.76599 29.6516 4.99902 27.7209 4.99902C25.7902 4.99902 23.9386 5.76599 22.5734 7.13119L20.0001 9.70452" stroke="#D6DCE4" stroke-width="3.33333" stroke-linecap="round" stroke-linejoin="round"/>
</svg>
