<svg width="20" height="20" viewBox="0 0 20 20" fill="none" xmlns="http://www.w3.org/2000/svg">
<path d="M5.602 19.8007C4.309 19.8007 3.098 19.2457 2.224 18.3607C0.529004 16.6447 0.0570042 13.6497 2.433 11.2447L12.181 1.37474C13.169 0.374735 14.426 -0.0122645 15.629 0.314735C16.812 0.634735 17.78 1.61574 18.097 2.81274C18.419 4.03274 18.038 5.30574 17.051 6.30574L7.728 15.7457C7.196 16.2847 6.594 16.6037 5.99 16.6677C5.391 16.7317 4.82 16.5377 4.42 16.1327C3.696 15.3967 3.592 14.0157 4.798 12.7957L11.346 6.16574C11.615 5.89374 12.051 5.89374 12.32 6.16574C12.589 6.43774 12.589 6.87974 12.32 7.15174L5.771 13.7827C5.205 14.3547 5.153 14.9017 5.394 15.1467C5.5 15.2527 5.66 15.3017 5.845 15.2807C6.128 15.2517 6.451 15.0647 6.754 14.7597L16.077 5.32074C16.717 4.67274 16.962 3.91074 16.767 3.17574C16.6695 2.81631 16.4809 2.48816 16.2193 2.22308C15.9577 1.95801 15.6321 1.76499 15.274 1.66274C14.548 1.46574 13.794 1.71474 13.154 2.36274L3.406 12.2327C1.59 14.0717 2.025 16.1887 3.197 17.3757C4.37 18.5627 6.459 19.0047 8.276 17.1637L18.024 7.29374C18.0876 7.22909 18.1634 7.17775 18.247 7.1427C18.3306 7.10766 18.4203 7.08961 18.511 7.08961C18.6017 7.08961 18.6914 7.10766 18.775 7.1427C18.8586 7.17775 18.9344 7.22909 18.998 7.29374C19.1274 7.4254 19.1999 7.60262 19.1999 7.78724C19.1999 7.97185 19.1274 8.14907 18.998 8.28074L9.25 18.1507C8.101 19.3127 6.814 19.8007 5.602 19.8007V19.8007Z" fill="#D6DCE4"/>
</svg>
