<svg width="40" height="40" viewBox="0 0 40 40" fill="none" xmlns="http://www.w3.org/2000/svg">
<path d="M15.0001 28.333H20.0001M6.66675 6.66634V33.333C6.66675 34.2171 7.01794 35.0649 7.64306 35.69C8.26818 36.3152 9.11603 36.6663 10.0001 36.6663H30.0001C30.8841 36.6663 31.732 36.3152 32.3571 35.69C32.9822 35.0649 33.3334 34.2171 33.3334 33.333V13.903C33.3334 13.4589 33.2446 13.0194 33.0723 12.6101C32.9 12.2008 32.6476 11.8301 32.3301 11.5197L24.9301 4.28301C24.3074 3.6741 23.471 3.33312 22.6001 3.33301H10.0001C9.11603 3.33301 8.26818 3.6842 7.64306 4.30932C7.01794 4.93444 6.66675 5.78229 6.66675 6.66634V6.66634ZM15.0001 21.6663H25.0001H15.0001Z" stroke="#00A389" stroke-width="3.33333" stroke-linecap="round" stroke-linejoin="round"/>
<path d="M23.3335 3.33301V9.99967C23.3335 10.8837 23.6847 11.7316 24.3098 12.3567C24.9349 12.9818 25.7828 13.333 26.6668 13.333H33.3335" stroke="#00A389" stroke-width="3.33333" stroke-linejoin="round"/>
</svg>
