<svg width="50" height="50" viewBox="0 0 50 50" fill="none" xmlns="http://www.w3.org/2000/svg">
<rect width="50" height="50" rx="10.4" fill="#00A389"/>
<g clip-path="url(#clip0_112_47)">
<path d="M34.8172 15.1834C34.9038 15.2701 34.9629 15.3803 34.9874 15.5003C35.0118 15.6203 35.0005 15.7448 34.9547 15.8584L27.681 34.0422C27.6169 34.2023 27.5098 34.3417 27.3716 34.4449C27.2335 34.5481 27.0695 34.6112 26.8977 34.6272C26.726 34.6432 26.5531 34.6116 26.3982 34.5357C26.2433 34.4598 26.1123 34.3427 26.0197 34.1972L22.0472 27.9534L15.8035 23.9809C15.6576 23.8884 15.5402 23.7574 15.4641 23.6023C15.388 23.4473 15.3562 23.2742 15.3722 23.1022C15.3882 22.9303 15.4515 22.7661 15.5549 22.6277C15.6584 22.4894 15.798 22.3824 15.9585 22.3184L34.1422 15.0472C34.2558 15.0014 34.3804 14.9901 34.5004 15.0145C34.6204 15.039 34.7306 15.0981 34.8172 15.1847V15.1834ZM23.2947 27.5884L26.746 33.0109L32.6622 18.2209L23.2947 27.5884ZM31.7785 17.3372L16.9885 23.2534L22.4122 26.7034L31.7797 17.3372H31.7785Z" fill="white"/>
</g>
<defs>
<clipPath id="clip0_112_47">
<rect width="20" height="20" fill="white" transform="translate(15 15)"/>
</clipPath>
</defs>
</svg>
